# File created by Blade
# Date/Time:  Thu Jan 22 16:52:56 2015
# Frame Rate: 120.000 fps
#------------------------------------------------------
:FULLY-SPECIFIED
:DEGREES
1793
root 3.544072 3.794714 0.081420 -31.907994 9.458688 -11.642279
RightUpLeg -28.613750 -39.501454 -37.589187
RightLeg -0.765246 -0.000000 0.000000
RightFoot 3.857165 -28.818726 29.998153
RightToeBase 6.331234 -0.000000 -0.000000
LeftUpLeg -61.831900 20.041148 12.086415
LeftLeg 3.586165 -0.000000 -0.000000
LeftFoot 8.896730 31.398473 -37.343580
LeftToeBase -2.100648 -0.000000 0.000000
Spine 74.513891 21.010621 -19.095493
RightShoulder -0.125835 13.055778 -56.144178
RightArm 79.567238 44.501807 41.438050
RightForeArm -29.098384 -0.000000 38.522026
RightHand 0.909619 0.000000 3.355480
RightHandThumb1 -24.326973 -0.000000 -32.862282
LeftShoulder 10.725779 -33.856400 50.410802
LeftArm 28.058955 -31.835832 -62.620426
LeftForeArm 51.750425 -0.000000 42.629951
LeftHand -32.618847 0.000000 -1.469686
LeftHandThumb1 -26.253704 0.000000 33.147579
Head 63.349681 38.791535 -1.466536
1794
root 3.544690 3.794407 0.078929 -31.934862 9.427420 -11.706311
RightUpLeg -28.570323 -39.481451 -37.538993
RightLeg -0.783677 -0.000000 0.000000
RightFoot 3.792840 -28.818114 29.995664
RightToeBase 6.295135 -0.000000 -0.000000
LeftUpLeg -61.834414 20.031718 12.154628
LeftLeg 3.608466 -0.000000 -0.000000
LeftFoot 8.897265 31.365520 -37.309111
LeftToeBase -2.051982 -0.000000 0.000000
Spine 74.486636 20.993703 -19.071766
RightShoulder -0.052752 13.133665 -56.164515
RightArm 79.104157 44.368265 41.093983
RightForeArm -29.084501 -0.000000 38.498392
RightHand 0.863515 -0.000000 3.283349
RightHandThumb1 -24.326973 -0.000000 -32.862282
LeftShoulder 10.791063 -33.829698 50.363088
LeftArm 28.058607 -31.898573 -62.613972
LeftForeArm 51.766220 -0.000000 42.606721
LeftHand -32.612112 0.000000 -1.381914
LeftHandThumb1 -26.253704 0.000000 33.147579
Head 63.222514 38.753185 -1.660971
1795
root 3.544946 3.798679 0.077947 -32.006359 9.396161 -11.787567
RightUpLeg -28.471542 -39.472264 -37.485825
RightLeg -0.825123 -0.000000 0.000000
RightFoot 3.742792 -28.802167 29.970251
RightToeBase 6.262925 -0.000000 -0.000000
LeftUpLeg -61.794116 20.013946 12.234146
LeftLeg 3.626700 -0.000000 -0.000000
LeftFoot 8.894724 31.320766 -37.298144
LeftToeBase -2.096165 -0.000000 0.000000
Spine 74.570894 21.050875 -18.828632
RightShoulder -0.081549 12.952946 -56.146297
RightArm 78.932197 44.337584 40.988107
RightForeArm -29.159971 -0.000000 38.389351
RightHand 0.967932 -0.000000 3.378944
RightHandThumb1 -24.326973 -0.000000 -32.862282
LeftShoulder 11.032688 -33.915580 50.283310
LeftArm 28.047564 -32.008597 -62.624293
LeftForeArm 51.742969 0.000000 42.628719
LeftHand -32.613196 -0.000000 -1.362584
LeftHandThumb1 -26.253704 0.000000 33.147579
Head 63.128773 38.482839 -1.754139
1796
root 3.548661 3.799884 0.073639 -32.049800 9.376965 -11.855976
RightUpLeg -28.419312 -39.493087 -37.412420
RightLeg -0.887389 -0.000000 0.000000
RightFoot 3.732956 -28.904142 30.001982
RightToeBase 6.180439 -0.000000 -0.000000
LeftUpLeg -61.773594 19.974051 12.312759
LeftLeg 3.643263 -0.000000 -0.000000
LeftFoot 8.888737 31.291718 -37.252524
LeftToeBase -2.078203 -0.000000 0.000000
Spine 74.591816 21.021725 -18.765979
RightShoulder -0.056330 12.991431 -56.167025
RightArm 78.557798 44.241717 40.702671
RightForeArm -29.276148 -0.000000 38.374312
RightHand 0.989278 -0.000000 3.282301
RightHandThumb1 -24.326973 -0.000000 -32.862282
LeftShoulder 11.124007 -33.922040 50.233254
LeftArm 28.016315 -32.091003 -62.622456
LeftForeArm 51.796743 -0.000000 42.630409
LeftHand -32.604846 -0.000000 -1.299017
LeftHandThumb1 -26.253704 0.000000 33.147579
Head 62.975688 38.444039 -1.949249
